<svg version="1.1" xmlns="http://www.w3.org/2000/svg" viewBox="-184.07933148823219 -10.830891864462162 368.15866297646437 21.661783728924323" fill="none" stroke="black" stroke-width="0.6%" vector-effect="non-scaling-stroke">
    <path d="M -183.07933 1.45595 L -183.07933 -8.54244 L -3.58979 -0.1675 L 33.74403 -0.42519 L 37.33382 -0.25769 L 74.66765 -0.51538 L 71.07786 -0.68288 L 108.41168 -0.94057 L 112.00147 -0.77307 L 149.3353 -1.03076 L 145.74551 -1.19826 L 183.07933 -1.45595 L 3.58979 -9.83089 L -33.74403 -9.5732 L -37.33382 -9.7407 L -74.66765 -9.48301 L -71.07786 -9.31551 L -108.41168 -9.05782 L -112.00147 -9.22532 L -149.3353 -8.96763 L -145.74551 -8.80013 L -183.07933 -8.54244" />
    <path d="M -3.58979 9.83089 L -3.58979 -0.1675" />
    <path d="M -183.07933 1.45595 L -3.58979 9.83089 L 33.74403 9.5732 L 37.33382 9.7407 L 74.66765 9.48301 L 74.66765 -0.51538" />
    <path d="M 33.74403 9.5732 L 33.74403 -0.42519" />
    <path d="M 37.33382 9.7407 L 37.33382 -0.25769" />
    <path d="M 108.41168 9.05782 L 108.41168 -0.94057" />
    <path d="M 74.66765 9.29073 L 108.41168 9.05782 L 112.00147 9.22532 L 149.3353 8.96763 L 149.3353 -1.03076" />
    <path d="M 112.00147 9.22532 L 112.00147 -0.77307" />
    <path d="M 183.07933 8.54244 L 183.07933 -1.45595" />
    <path d="M 149.3353 8.77535 L 183.07933 8.54244" />
    <path d="M -74.66765 -9.29073 L -74.66765 -9.48301" />
    <path d="M -149.3353 -8.77535 L -149.3353 -8.96763" />
</svg>